<mxfile host="65bd71144e">
    <diagram id="xxtGg2wU7yqez92tXx-T" name="Sistema de Suporte Técnico">
        <mxGraphModel dx="867" dy="1731" grid="1" gridSize="10" guides="1" tooltips="1" connect="1" arrows="1" fold="1" page="1" pageScale="1" pageWidth="827" pageHeight="1169" math="0" shadow="0">
            <root>
                <mxCell id="0"/>
                <mxCell id="1" parent="0"/>
                <mxCell id="Rx2T69dyfRHc1BvL6L9R-47" style="edgeStyle=none;shape=connector;rounded=1;html=1;exitX=0;exitY=0.5;exitDx=0;exitDy=0;strokeColor=default;align=center;verticalAlign=middle;fontFamily=Helvetica;fontSize=11;fontColor=default;labelBackgroundColor=default;endArrow=none;endFill=0;" edge="1" parent="1" source="Rx2T69dyfRHc1BvL6L9R-1" target="Rx2T69dyfRHc1BvL6L9R-48">
                    <mxGeometry relative="1" as="geometry">
                        <mxPoint x="210" y="839.9047619047619" as="targetPoint"/>
                    </mxGeometry>
                </mxCell>
                <mxCell id="Rx2T69dyfRHc1BvL6L9R-49" style="edgeStyle=none;shape=connector;rounded=1;html=1;exitX=0;exitY=0.75;exitDx=0;exitDy=0;strokeColor=default;align=center;verticalAlign=middle;fontFamily=Helvetica;fontSize=11;fontColor=default;labelBackgroundColor=default;endArrow=none;endFill=0;" edge="1" parent="1" source="Rx2T69dyfRHc1BvL6L9R-1" target="Rx2T69dyfRHc1BvL6L9R-50">
                    <mxGeometry relative="1" as="geometry">
                        <mxPoint x="170" y="880" as="targetPoint"/>
                    </mxGeometry>
                </mxCell>
                <mxCell id="Rx2T69dyfRHc1BvL6L9R-51" style="edgeStyle=none;shape=connector;rounded=1;html=1;exitX=0;exitY=1;exitDx=0;exitDy=0;strokeColor=default;align=center;verticalAlign=middle;fontFamily=Helvetica;fontSize=11;fontColor=default;labelBackgroundColor=default;endArrow=none;endFill=0;" edge="1" parent="1" source="Rx2T69dyfRHc1BvL6L9R-1" target="Rx2T69dyfRHc1BvL6L9R-52">
                    <mxGeometry relative="1" as="geometry">
                        <mxPoint x="190" y="930" as="targetPoint"/>
                    </mxGeometry>
                </mxCell>
                <mxCell id="Rx2T69dyfRHc1BvL6L9R-53" style="edgeStyle=none;shape=connector;rounded=1;html=1;exitX=0.25;exitY=1;exitDx=0;exitDy=0;strokeColor=default;align=center;verticalAlign=middle;fontFamily=Helvetica;fontSize=11;fontColor=default;labelBackgroundColor=default;endArrow=none;endFill=0;" edge="1" parent="1" source="Rx2T69dyfRHc1BvL6L9R-1" target="Rx2T69dyfRHc1BvL6L9R-54">
                    <mxGeometry relative="1" as="geometry">
                        <mxPoint x="260" y="960" as="targetPoint"/>
                    </mxGeometry>
                </mxCell>
                <mxCell id="Rx2T69dyfRHc1BvL6L9R-55" style="edgeStyle=none;shape=connector;rounded=1;html=1;exitX=0.5;exitY=1;exitDx=0;exitDy=0;strokeColor=default;align=center;verticalAlign=middle;fontFamily=Helvetica;fontSize=11;fontColor=default;labelBackgroundColor=default;endArrow=none;endFill=0;" edge="1" parent="1" source="Rx2T69dyfRHc1BvL6L9R-1" target="Rx2T69dyfRHc1BvL6L9R-56">
                    <mxGeometry relative="1" as="geometry">
                        <mxPoint x="340" y="990" as="targetPoint"/>
                    </mxGeometry>
                </mxCell>
                <mxCell id="Rx2T69dyfRHc1BvL6L9R-1" value="Técnico" style="rounded=0;whiteSpace=wrap;html=1;" vertex="1" parent="1">
                    <mxGeometry x="310" y="810" width="120" height="60" as="geometry"/>
                </mxCell>
                <mxCell id="Rx2T69dyfRHc1BvL6L9R-7" style="edgeStyle=none;shape=connector;rounded=1;html=1;exitX=1;exitY=0.5;exitDx=0;exitDy=0;entryX=0;entryY=0.5;entryDx=0;entryDy=0;strokeColor=default;align=center;verticalAlign=middle;fontFamily=Helvetica;fontSize=11;fontColor=default;labelBackgroundColor=default;endArrow=none;endFill=0;" edge="1" parent="1" source="Rx2T69dyfRHc1BvL6L9R-18" target="Rx2T69dyfRHc1BvL6L9R-4">
                    <mxGeometry relative="1" as="geometry"/>
                </mxCell>
                <mxCell id="Rx2T69dyfRHc1BvL6L9R-21" style="edgeStyle=none;shape=connector;rounded=1;html=1;exitX=0.25;exitY=0;exitDx=0;exitDy=0;strokeColor=default;align=center;verticalAlign=middle;fontFamily=Helvetica;fontSize=11;fontColor=default;labelBackgroundColor=default;endArrow=none;endFill=0;" edge="1" parent="1" source="Rx2T69dyfRHc1BvL6L9R-2" target="Rx2T69dyfRHc1BvL6L9R-22">
                    <mxGeometry relative="1" as="geometry">
                        <mxPoint x="330" y="140" as="targetPoint"/>
                    </mxGeometry>
                </mxCell>
                <mxCell id="Rx2T69dyfRHc1BvL6L9R-23" style="edgeStyle=none;shape=connector;rounded=1;html=1;exitX=0.5;exitY=0;exitDx=0;exitDy=0;strokeColor=default;align=center;verticalAlign=middle;fontFamily=Helvetica;fontSize=11;fontColor=default;labelBackgroundColor=default;endArrow=none;endFill=0;" edge="1" parent="1" source="Rx2T69dyfRHc1BvL6L9R-2" target="Rx2T69dyfRHc1BvL6L9R-24">
                    <mxGeometry relative="1" as="geometry">
                        <mxPoint x="400" y="140" as="targetPoint"/>
                    </mxGeometry>
                </mxCell>
                <mxCell id="Rx2T69dyfRHc1BvL6L9R-25" style="edgeStyle=none;shape=connector;rounded=1;html=1;exitX=0.75;exitY=0;exitDx=0;exitDy=0;strokeColor=default;align=center;verticalAlign=middle;fontFamily=Helvetica;fontSize=11;fontColor=default;labelBackgroundColor=default;endArrow=none;endFill=0;" edge="1" parent="1" source="Rx2T69dyfRHc1BvL6L9R-2" target="Rx2T69dyfRHc1BvL6L9R-26">
                    <mxGeometry relative="1" as="geometry">
                        <mxPoint x="470" y="150" as="targetPoint"/>
                    </mxGeometry>
                </mxCell>
                <mxCell id="Rx2T69dyfRHc1BvL6L9R-27" style="edgeStyle=none;shape=connector;rounded=1;html=1;exitX=1;exitY=0;exitDx=0;exitDy=0;strokeColor=default;align=center;verticalAlign=middle;fontFamily=Helvetica;fontSize=11;fontColor=default;labelBackgroundColor=default;endArrow=none;endFill=0;" edge="1" parent="1" source="Rx2T69dyfRHc1BvL6L9R-2" target="Rx2T69dyfRHc1BvL6L9R-28">
                    <mxGeometry relative="1" as="geometry">
                        <mxPoint x="510" y="190" as="targetPoint"/>
                    </mxGeometry>
                </mxCell>
                <mxCell id="Rx2T69dyfRHc1BvL6L9R-2" value="Cliente" style="rounded=0;whiteSpace=wrap;html=1;" vertex="1" parent="1">
                    <mxGeometry x="310" y="300" width="120" height="60" as="geometry"/>
                </mxCell>
                <mxCell id="Rx2T69dyfRHc1BvL6L9R-5" style="edgeStyle=none;html=1;exitX=0.5;exitY=1;exitDx=0;exitDy=0;entryX=0.5;entryY=0;entryDx=0;entryDy=0;endArrow=none;endFill=0;" edge="1" parent="1" source="Rx2T69dyfRHc1BvL6L9R-14" target="Rx2T69dyfRHc1BvL6L9R-1">
                    <mxGeometry relative="1" as="geometry"/>
                </mxCell>
                <mxCell id="Rx2T69dyfRHc1BvL6L9R-6" style="edgeStyle=none;shape=connector;rounded=1;html=1;exitX=0.5;exitY=0;exitDx=0;exitDy=0;entryX=0.5;entryY=1;entryDx=0;entryDy=0;strokeColor=default;align=center;verticalAlign=middle;fontFamily=Helvetica;fontSize=11;fontColor=default;labelBackgroundColor=default;endArrow=none;endFill=0;" edge="1" parent="1" source="Rx2T69dyfRHc1BvL6L9R-8" target="Rx2T69dyfRHc1BvL6L9R-2">
                    <mxGeometry relative="1" as="geometry"/>
                </mxCell>
                <mxCell id="Rx2T69dyfRHc1BvL6L9R-32" style="edgeStyle=none;shape=connector;rounded=1;html=1;exitX=0;exitY=0.25;exitDx=0;exitDy=0;strokeColor=default;align=center;verticalAlign=middle;fontFamily=Helvetica;fontSize=11;fontColor=default;labelBackgroundColor=default;endArrow=none;endFill=0;" edge="1" parent="1" source="Rx2T69dyfRHc1BvL6L9R-3" target="Rx2T69dyfRHc1BvL6L9R-33">
                    <mxGeometry relative="1" as="geometry">
                        <mxPoint x="210" y="490" as="targetPoint"/>
                    </mxGeometry>
                </mxCell>
                <mxCell id="Rx2T69dyfRHc1BvL6L9R-34" style="edgeStyle=none;shape=connector;rounded=1;html=1;exitX=0;exitY=0.5;exitDx=0;exitDy=0;strokeColor=default;align=center;verticalAlign=middle;fontFamily=Helvetica;fontSize=11;fontColor=default;labelBackgroundColor=default;endArrow=none;endFill=0;" edge="1" parent="1" source="Rx2T69dyfRHc1BvL6L9R-3" target="Rx2T69dyfRHc1BvL6L9R-36">
                    <mxGeometry relative="1" as="geometry">
                        <mxPoint x="200" y="570" as="targetPoint"/>
                    </mxGeometry>
                </mxCell>
                <mxCell id="Rx2T69dyfRHc1BvL6L9R-37" style="edgeStyle=none;shape=connector;rounded=1;html=1;exitX=0;exitY=0.75;exitDx=0;exitDy=0;strokeColor=default;align=center;verticalAlign=middle;fontFamily=Helvetica;fontSize=11;fontColor=default;labelBackgroundColor=default;endArrow=none;endFill=0;" edge="1" parent="1" source="Rx2T69dyfRHc1BvL6L9R-3" target="Rx2T69dyfRHc1BvL6L9R-38">
                    <mxGeometry relative="1" as="geometry">
                        <mxPoint x="220" y="620" as="targetPoint"/>
                    </mxGeometry>
                </mxCell>
                <mxCell id="Rx2T69dyfRHc1BvL6L9R-39" style="edgeStyle=none;shape=connector;rounded=1;html=1;exitX=0;exitY=1;exitDx=0;exitDy=0;strokeColor=default;align=center;verticalAlign=middle;fontFamily=Helvetica;fontSize=11;fontColor=default;labelBackgroundColor=default;endArrow=none;endFill=0;" edge="1" parent="1" source="Rx2T69dyfRHc1BvL6L9R-3" target="Rx2T69dyfRHc1BvL6L9R-40">
                    <mxGeometry relative="1" as="geometry">
                        <mxPoint x="230" y="720" as="targetPoint"/>
                    </mxGeometry>
                </mxCell>
                <mxCell id="Rx2T69dyfRHc1BvL6L9R-41" style="edgeStyle=none;shape=connector;rounded=1;html=1;exitX=0;exitY=0;exitDx=0;exitDy=0;strokeColor=default;align=center;verticalAlign=middle;fontFamily=Helvetica;fontSize=11;fontColor=default;labelBackgroundColor=default;endArrow=none;endFill=0;" edge="1" parent="1" source="Rx2T69dyfRHc1BvL6L9R-3" target="Rx2T69dyfRHc1BvL6L9R-42">
                    <mxGeometry relative="1" as="geometry">
                        <mxPoint x="220" y="400" as="targetPoint"/>
                    </mxGeometry>
                </mxCell>
                <mxCell id="Rx2T69dyfRHc1BvL6L9R-45" style="edgeStyle=none;shape=connector;rounded=1;html=1;exitX=1;exitY=0.5;exitDx=0;exitDy=0;strokeColor=default;align=center;verticalAlign=middle;fontFamily=Helvetica;fontSize=11;fontColor=default;labelBackgroundColor=default;endArrow=none;endFill=0;" edge="1" parent="1" source="Rx2T69dyfRHc1BvL6L9R-3" target="Rx2T69dyfRHc1BvL6L9R-46">
                    <mxGeometry relative="1" as="geometry">
                        <mxPoint x="290" y="710" as="targetPoint"/>
                    </mxGeometry>
                </mxCell>
                <mxCell id="Rx2T69dyfRHc1BvL6L9R-3" value="Chamado" style="rounded=0;whiteSpace=wrap;html=1;" vertex="1" parent="1">
                    <mxGeometry x="310" y="520" width="120" height="60" as="geometry"/>
                </mxCell>
                <mxCell id="Rx2T69dyfRHc1BvL6L9R-57" style="edgeStyle=none;shape=connector;rounded=1;html=1;exitX=0.25;exitY=0;exitDx=0;exitDy=0;strokeColor=default;align=center;verticalAlign=middle;fontFamily=Helvetica;fontSize=11;fontColor=default;labelBackgroundColor=default;endArrow=none;endFill=0;" edge="1" parent="1" source="Rx2T69dyfRHc1BvL6L9R-4" target="Rx2T69dyfRHc1BvL6L9R-58">
                    <mxGeometry relative="1" as="geometry">
                        <mxPoint x="710" y="170" as="targetPoint"/>
                    </mxGeometry>
                </mxCell>
                <mxCell id="Rx2T69dyfRHc1BvL6L9R-59" style="edgeStyle=none;shape=connector;rounded=1;html=1;exitX=0.5;exitY=0;exitDx=0;exitDy=0;strokeColor=default;align=center;verticalAlign=middle;fontFamily=Helvetica;fontSize=11;fontColor=default;labelBackgroundColor=default;endArrow=none;endFill=0;" edge="1" parent="1" source="Rx2T69dyfRHc1BvL6L9R-4" target="Rx2T69dyfRHc1BvL6L9R-60">
                    <mxGeometry relative="1" as="geometry">
                        <mxPoint x="780" y="130" as="targetPoint"/>
                    </mxGeometry>
                </mxCell>
                <mxCell id="Rx2T69dyfRHc1BvL6L9R-61" style="edgeStyle=none;shape=connector;rounded=1;html=1;exitX=0.75;exitY=0;exitDx=0;exitDy=0;strokeColor=default;align=center;verticalAlign=middle;fontFamily=Helvetica;fontSize=11;fontColor=default;labelBackgroundColor=default;endArrow=none;endFill=0;" edge="1" parent="1" source="Rx2T69dyfRHc1BvL6L9R-4" target="Rx2T69dyfRHc1BvL6L9R-62">
                    <mxGeometry relative="1" as="geometry">
                        <mxPoint x="840" y="170" as="targetPoint"/>
                    </mxGeometry>
                </mxCell>
                <mxCell id="Rx2T69dyfRHc1BvL6L9R-4" value="Categoria do chamado" style="rounded=0;whiteSpace=wrap;html=1;" vertex="1" parent="1">
                    <mxGeometry x="690" y="300" width="120" height="60" as="geometry"/>
                </mxCell>
                <mxCell id="Rx2T69dyfRHc1BvL6L9R-9" value="" style="edgeStyle=none;shape=connector;rounded=1;html=1;exitX=0.5;exitY=0;exitDx=0;exitDy=0;entryX=0.5;entryY=1;entryDx=0;entryDy=0;strokeColor=default;align=center;verticalAlign=middle;fontFamily=Helvetica;fontSize=11;fontColor=default;labelBackgroundColor=default;endArrow=none;endFill=0;" edge="1" parent="1" source="Rx2T69dyfRHc1BvL6L9R-10" target="Rx2T69dyfRHc1BvL6L9R-8">
                    <mxGeometry relative="1" as="geometry">
                        <mxPoint x="365" y="490" as="sourcePoint"/>
                        <mxPoint x="375" y="380" as="targetPoint"/>
                    </mxGeometry>
                </mxCell>
                <mxCell id="Rx2T69dyfRHc1BvL6L9R-8" value="(1:N)" style="text;html=1;align=center;verticalAlign=middle;whiteSpace=wrap;rounded=0;fontFamily=Helvetica;fontSize=11;fontColor=default;labelBackgroundColor=default;" vertex="1" parent="1">
                    <mxGeometry x="340" y="360" width="60" height="20" as="geometry"/>
                </mxCell>
                <mxCell id="Rx2T69dyfRHc1BvL6L9R-12" value="" style="edgeStyle=none;shape=connector;rounded=1;html=1;exitX=0.5;exitY=0;exitDx=0;exitDy=0;entryX=0.5;entryY=1;entryDx=0;entryDy=0;strokeColor=default;align=center;verticalAlign=middle;fontFamily=Helvetica;fontSize=11;fontColor=default;labelBackgroundColor=default;endArrow=none;endFill=0;" edge="1" parent="1" source="Rx2T69dyfRHc1BvL6L9R-3" target="Rx2T69dyfRHc1BvL6L9R-10">
                    <mxGeometry relative="1" as="geometry">
                        <mxPoint x="370" y="520" as="sourcePoint"/>
                        <mxPoint x="370" y="380" as="targetPoint"/>
                    </mxGeometry>
                </mxCell>
                <mxCell id="Rx2T69dyfRHc1BvL6L9R-43" style="edgeStyle=none;shape=connector;rounded=1;html=1;exitX=0;exitY=1;exitDx=0;exitDy=0;strokeColor=default;align=center;verticalAlign=middle;fontFamily=Helvetica;fontSize=11;fontColor=default;labelBackgroundColor=default;endArrow=none;endFill=0;" edge="1" parent="1" source="Rx2T69dyfRHc1BvL6L9R-10" target="Rx2T69dyfRHc1BvL6L9R-44">
                    <mxGeometry relative="1" as="geometry">
                        <mxPoint x="270" y="430" as="targetPoint"/>
                    </mxGeometry>
                </mxCell>
                <mxCell id="Rx2T69dyfRHc1BvL6L9R-10" value="(1:N)" style="text;html=1;align=center;verticalAlign=middle;whiteSpace=wrap;rounded=0;fontFamily=Helvetica;fontSize=11;fontColor=default;labelBackgroundColor=default;" vertex="1" parent="1">
                    <mxGeometry x="340" y="490" width="60" height="30" as="geometry"/>
                </mxCell>
                <mxCell id="Rx2T69dyfRHc1BvL6L9R-13" value="" style="edgeStyle=none;html=1;exitX=0.5;exitY=1;exitDx=0;exitDy=0;entryX=0.5;entryY=0;entryDx=0;entryDy=0;endArrow=none;endFill=0;" edge="1" parent="1" source="Rx2T69dyfRHc1BvL6L9R-3" target="Rx2T69dyfRHc1BvL6L9R-11">
                    <mxGeometry relative="1" as="geometry">
                        <mxPoint x="370" y="580" as="sourcePoint"/>
                        <mxPoint x="370" y="730" as="targetPoint"/>
                    </mxGeometry>
                </mxCell>
                <mxCell id="Rx2T69dyfRHc1BvL6L9R-11" value="(1:N)" style="text;html=1;align=center;verticalAlign=middle;whiteSpace=wrap;rounded=0;fontFamily=Helvetica;fontSize=11;fontColor=default;labelBackgroundColor=default;" vertex="1" parent="1">
                    <mxGeometry x="340" y="580" width="60" height="20" as="geometry"/>
                </mxCell>
                <mxCell id="Rx2T69dyfRHc1BvL6L9R-15" value="" style="edgeStyle=none;html=1;exitX=0.5;exitY=1;exitDx=0;exitDy=0;entryX=0.5;entryY=0;entryDx=0;entryDy=0;endArrow=none;endFill=0;" edge="1" parent="1" source="Rx2T69dyfRHc1BvL6L9R-11" target="Rx2T69dyfRHc1BvL6L9R-14">
                    <mxGeometry relative="1" as="geometry">
                        <mxPoint x="370" y="610" as="sourcePoint"/>
                        <mxPoint x="370" y="730" as="targetPoint"/>
                    </mxGeometry>
                </mxCell>
                <mxCell id="Rx2T69dyfRHc1BvL6L9R-14" value="(N:1)" style="text;html=1;align=center;verticalAlign=middle;whiteSpace=wrap;rounded=0;fontFamily=Helvetica;fontSize=11;fontColor=default;labelBackgroundColor=default;" vertex="1" parent="1">
                    <mxGeometry x="340" y="780" width="60" height="30" as="geometry"/>
                </mxCell>
                <mxCell id="Rx2T69dyfRHc1BvL6L9R-19" value="" style="edgeStyle=none;shape=connector;rounded=1;html=1;exitX=1;exitY=0.5;exitDx=0;exitDy=0;entryX=0;entryY=0.5;entryDx=0;entryDy=0;strokeColor=default;align=center;verticalAlign=middle;fontFamily=Helvetica;fontSize=11;fontColor=default;labelBackgroundColor=default;endArrow=none;endFill=0;" edge="1" parent="1" source="Rx2T69dyfRHc1BvL6L9R-17" target="Rx2T69dyfRHc1BvL6L9R-18">
                    <mxGeometry relative="1" as="geometry">
                        <mxPoint x="430" y="330" as="sourcePoint"/>
                        <mxPoint x="590" y="330" as="targetPoint"/>
                    </mxGeometry>
                </mxCell>
                <mxCell id="Rx2T69dyfRHc1BvL6L9R-18" value="(N:1)" style="text;html=1;align=center;verticalAlign=middle;whiteSpace=wrap;rounded=0;fontFamily=Helvetica;fontSize=11;fontColor=default;labelBackgroundColor=default;" vertex="1" parent="1">
                    <mxGeometry x="660" y="315" width="30" height="30" as="geometry"/>
                </mxCell>
                <mxCell id="Rx2T69dyfRHc1BvL6L9R-20" value="" style="edgeStyle=none;shape=connector;rounded=1;html=1;exitX=1;exitY=0.5;exitDx=0;exitDy=0;entryX=0;entryY=0.5;entryDx=0;entryDy=0;strokeColor=default;align=center;verticalAlign=middle;fontFamily=Helvetica;fontSize=11;fontColor=default;labelBackgroundColor=default;endArrow=none;endFill=0;" edge="1" parent="1" source="Rx2T69dyfRHc1BvL6L9R-2" target="Rx2T69dyfRHc1BvL6L9R-17">
                    <mxGeometry relative="1" as="geometry">
                        <mxPoint x="430" y="330" as="sourcePoint"/>
                        <mxPoint x="540" y="330" as="targetPoint"/>
                    </mxGeometry>
                </mxCell>
                <mxCell id="Rx2T69dyfRHc1BvL6L9R-17" value="(1:N)" style="text;html=1;align=center;verticalAlign=middle;whiteSpace=wrap;rounded=0;fontFamily=Helvetica;fontSize=11;fontColor=default;labelBackgroundColor=default;" vertex="1" parent="1">
                    <mxGeometry x="430" y="315" width="30" height="30" as="geometry"/>
                </mxCell>
                <mxCell id="Rx2T69dyfRHc1BvL6L9R-22" value="ID" style="ellipse;whiteSpace=wrap;html=1;aspect=fixed;fontFamily=Helvetica;fontSize=11;fontColor=default;labelBackgroundColor=default;" vertex="1" parent="1">
                    <mxGeometry x="290" y="150" width="30" height="30" as="geometry"/>
                </mxCell>
                <mxCell id="Rx2T69dyfRHc1BvL6L9R-24" value="Nome" style="ellipse;whiteSpace=wrap;html=1;aspect=fixed;fontFamily=Helvetica;fontSize=11;fontColor=default;labelBackgroundColor=default;" vertex="1" parent="1">
                    <mxGeometry x="360" y="140" width="40" height="40" as="geometry"/>
                </mxCell>
                <mxCell id="Rx2T69dyfRHc1BvL6L9R-26" value="CPF" style="ellipse;whiteSpace=wrap;html=1;aspect=fixed;fontFamily=Helvetica;fontSize=11;fontColor=default;labelBackgroundColor=default;" vertex="1" parent="1">
                    <mxGeometry x="430" y="160" width="30" height="30" as="geometry"/>
                </mxCell>
                <mxCell id="Rx2T69dyfRHc1BvL6L9R-28" value="Email" style="ellipse;whiteSpace=wrap;html=1;aspect=fixed;fontFamily=Helvetica;fontSize=11;fontColor=default;labelBackgroundColor=default;" vertex="1" parent="1">
                    <mxGeometry x="470" y="190" width="40" height="40" as="geometry"/>
                </mxCell>
                <mxCell id="Rx2T69dyfRHc1BvL6L9R-33" value="ID" style="ellipse;whiteSpace=wrap;html=1;aspect=fixed;fontFamily=Helvetica;fontSize=11;fontColor=default;labelBackgroundColor=default;" vertex="1" parent="1">
                    <mxGeometry x="210" y="490" width="40" height="40" as="geometry"/>
                </mxCell>
                <mxCell id="Rx2T69dyfRHc1BvL6L9R-36" value="Titulo" style="ellipse;whiteSpace=wrap;html=1;aspect=fixed;fontFamily=Helvetica;fontSize=11;fontColor=default;labelBackgroundColor=default;" vertex="1" parent="1">
                    <mxGeometry x="190" y="545" width="40" height="40" as="geometry"/>
                </mxCell>
                <mxCell id="Rx2T69dyfRHc1BvL6L9R-38" value="Prioridade" style="ellipse;whiteSpace=wrap;html=1;aspect=fixed;fontFamily=Helvetica;fontSize=11;fontColor=default;labelBackgroundColor=default;" vertex="1" parent="1">
                    <mxGeometry x="170" y="620" width="50" height="50" as="geometry"/>
                </mxCell>
                <mxCell id="Rx2T69dyfRHc1BvL6L9R-40" value="Status" style="ellipse;whiteSpace=wrap;html=1;aspect=fixed;fontFamily=Helvetica;fontSize=11;fontColor=default;labelBackgroundColor=default;" vertex="1" parent="1">
                    <mxGeometry x="220" y="680" width="50" height="50" as="geometry"/>
                </mxCell>
                <mxCell id="Rx2T69dyfRHc1BvL6L9R-42" value="Data do chamado" style="ellipse;whiteSpace=wrap;html=1;aspect=fixed;fontFamily=Helvetica;fontSize=11;fontColor=default;labelBackgroundColor=default;" vertex="1" parent="1">
                    <mxGeometry x="150" y="420" width="60" height="60" as="geometry"/>
                </mxCell>
                <mxCell id="Rx2T69dyfRHc1BvL6L9R-44" value="Data abertura" style="ellipse;whiteSpace=wrap;html=1;aspect=fixed;fontFamily=Helvetica;fontSize=11;fontColor=default;labelBackgroundColor=default;" vertex="1" parent="1">
                    <mxGeometry x="230" y="420" width="50" height="50" as="geometry"/>
                </mxCell>
                <mxCell id="Rx2T69dyfRHc1BvL6L9R-46" value="Data fechamento" style="ellipse;whiteSpace=wrap;html=1;aspect=fixed;fontFamily=Helvetica;fontSize=11;fontColor=default;labelBackgroundColor=default;" vertex="1" parent="1">
                    <mxGeometry x="480" y="510" width="80" height="80" as="geometry"/>
                </mxCell>
                <mxCell id="Rx2T69dyfRHc1BvL6L9R-48" value="ID" style="ellipse;whiteSpace=wrap;html=1;aspect=fixed;fontFamily=Helvetica;fontSize=11;fontColor=default;labelBackgroundColor=default;" vertex="1" parent="1">
                    <mxGeometry x="220" y="799.9" width="30" height="30" as="geometry"/>
                </mxCell>
                <mxCell id="Rx2T69dyfRHc1BvL6L9R-50" value="Nome" style="ellipse;whiteSpace=wrap;html=1;aspect=fixed;fontFamily=Helvetica;fontSize=11;fontColor=default;labelBackgroundColor=default;" vertex="1" parent="1">
                    <mxGeometry x="170" y="840" width="40" height="40" as="geometry"/>
                </mxCell>
                <mxCell id="Rx2T69dyfRHc1BvL6L9R-52" value="CPF" style="ellipse;whiteSpace=wrap;html=1;aspect=fixed;fontFamily=Helvetica;fontSize=11;fontColor=default;labelBackgroundColor=default;" vertex="1" parent="1">
                    <mxGeometry x="190" y="890" width="40" height="40" as="geometry"/>
                </mxCell>
                <mxCell id="Rx2T69dyfRHc1BvL6L9R-54" value="Telefone" style="ellipse;whiteSpace=wrap;html=1;aspect=fixed;fontFamily=Helvetica;fontSize=11;fontColor=default;labelBackgroundColor=default;" vertex="1" parent="1">
                    <mxGeometry x="250" y="920" width="50" height="50" as="geometry"/>
                </mxCell>
                <mxCell id="Rx2T69dyfRHc1BvL6L9R-56" value="Email" style="ellipse;whiteSpace=wrap;html=1;aspect=fixed;fontFamily=Helvetica;fontSize=11;fontColor=default;labelBackgroundColor=default;" vertex="1" parent="1">
                    <mxGeometry x="330" y="950" width="50" height="50" as="geometry"/>
                </mxCell>
                <mxCell id="Rx2T69dyfRHc1BvL6L9R-58" value="ID" style="ellipse;whiteSpace=wrap;html=1;aspect=fixed;fontFamily=Helvetica;fontSize=11;fontColor=default;labelBackgroundColor=default;" vertex="1" parent="1">
                    <mxGeometry x="670" y="180" width="30" height="30" as="geometry"/>
                </mxCell>
                <mxCell id="Rx2T69dyfRHc1BvL6L9R-60" value="Nome" style="ellipse;whiteSpace=wrap;html=1;aspect=fixed;fontFamily=Helvetica;fontSize=11;fontColor=default;labelBackgroundColor=default;" vertex="1" parent="1">
                    <mxGeometry x="740" y="130" width="40" height="40" as="geometry"/>
                </mxCell>
                <mxCell id="Rx2T69dyfRHc1BvL6L9R-62" value="Descrição" style="ellipse;whiteSpace=wrap;html=1;aspect=fixed;fontFamily=Helvetica;fontSize=11;fontColor=default;labelBackgroundColor=default;" vertex="1" parent="1">
                    <mxGeometry x="800" y="150" width="60" height="60" as="geometry"/>
                </mxCell>
            </root>
        </mxGraphModel>
    </diagram>
    <diagram id="1M4WCyiPqBJGXV5D22og" name="Sistema de Gestão de Transporte Público">
        <mxGraphModel dx="1240" dy="779" grid="1" gridSize="10" guides="1" tooltips="1" connect="1" arrows="1" fold="1" page="1" pageScale="1" pageWidth="850" pageHeight="1100" math="0" shadow="0">
            <root>
                <mxCell id="0"/>
                <mxCell id="1" parent="0"/>
                <mxCell id="ZFfleTE0ektDz7jlJYvN-8" style="edgeStyle=none;shape=connector;rounded=1;html=1;exitX=0.5;exitY=1;exitDx=0;exitDy=0;entryX=0.5;entryY=0;entryDx=0;entryDy=0;strokeColor=default;align=center;verticalAlign=middle;fontFamily=Helvetica;fontSize=11;fontColor=default;labelBackgroundColor=default;endArrow=none;endFill=0;" parent="1" source="ZFfleTE0ektDz7jlJYvN-18" target="ZFfleTE0ektDz7jlJYvN-3" edge="1">
                    <mxGeometry relative="1" as="geometry"/>
                </mxCell>
                <mxCell id="ZFfleTE0ektDz7jlJYvN-9" style="edgeStyle=none;shape=connector;rounded=1;html=1;exitX=0.5;exitY=1;exitDx=0;exitDy=0;entryX=0.5;entryY=0;entryDx=0;entryDy=0;strokeColor=default;align=center;verticalAlign=middle;fontFamily=Helvetica;fontSize=11;fontColor=default;labelBackgroundColor=default;endArrow=none;endFill=0;" parent="1" source="ZFfleTE0ektDz7jlJYvN-14" target="ZFfleTE0ektDz7jlJYvN-2" edge="1">
                    <mxGeometry relative="1" as="geometry"/>
                </mxCell>
                <mxCell id="ZFfleTE0ektDz7jlJYvN-10" style="edgeStyle=none;shape=connector;rounded=1;html=1;exitX=0.5;exitY=0;exitDx=0;exitDy=0;strokeColor=default;align=center;verticalAlign=middle;fontFamily=Helvetica;fontSize=11;fontColor=default;labelBackgroundColor=default;endArrow=none;endFill=0;" parent="1" source="ZFfleTE0ektDz7jlJYvN-28" target="ZFfleTE0ektDz7jlJYvN-5" edge="1">
                    <mxGeometry relative="1" as="geometry"/>
                </mxCell>
                <mxCell id="ZFfleTE0ektDz7jlJYvN-1" value="Motorista" style="rounded=0;whiteSpace=wrap;html=1;" parent="1" vertex="1">
                    <mxGeometry x="230" y="510" width="120" height="60" as="geometry"/>
                </mxCell>
                <mxCell id="ZFfleTE0ektDz7jlJYvN-7" style="edgeStyle=none;html=1;exitX=1;exitY=0.5;exitDx=0;exitDy=0;endArrow=none;endFill=0;" parent="1" source="ZFfleTE0ektDz7jlJYvN-22" target="ZFfleTE0ektDz7jlJYvN-3" edge="1">
                    <mxGeometry relative="1" as="geometry"/>
                </mxCell>
                <mxCell id="ZFfleTE0ektDz7jlJYvN-2" value="Ônibus" style="rounded=0;whiteSpace=wrap;html=1;" parent="1" vertex="1">
                    <mxGeometry x="40" y="980" width="120" height="60" as="geometry"/>
                </mxCell>
                <mxCell id="ZFfleTE0ektDz7jlJYvN-3" value="Ônibus_Motorista" style="rounded=0;whiteSpace=wrap;html=1;" parent="1" vertex="1">
                    <mxGeometry x="440" y="980" width="120" height="60" as="geometry"/>
                </mxCell>
                <mxCell id="ZFfleTE0ektDz7jlJYvN-40" style="edgeStyle=none;shape=connector;rounded=1;html=1;exitX=1;exitY=0.25;exitDx=0;exitDy=0;strokeColor=default;align=center;verticalAlign=middle;fontFamily=Helvetica;fontSize=11;fontColor=default;labelBackgroundColor=default;endArrow=none;endFill=0;" parent="1" source="ZFfleTE0ektDz7jlJYvN-4" target="ZFfleTE0ektDz7jlJYvN-41" edge="1">
                    <mxGeometry relative="1" as="geometry">
                        <mxPoint x="610.0000000000002" y="360" as="targetPoint"/>
                    </mxGeometry>
                </mxCell>
                <mxCell id="ZFfleTE0ektDz7jlJYvN-42" style="edgeStyle=none;shape=connector;rounded=1;html=1;exitX=1;exitY=0.5;exitDx=0;exitDy=0;strokeColor=default;align=center;verticalAlign=middle;fontFamily=Helvetica;fontSize=11;fontColor=default;labelBackgroundColor=default;endArrow=none;endFill=0;" parent="1" source="ZFfleTE0ektDz7jlJYvN-4" target="ZFfleTE0ektDz7jlJYvN-43" edge="1">
                    <mxGeometry relative="1" as="geometry">
                        <mxPoint x="660.0000000000002" y="480" as="targetPoint"/>
                    </mxGeometry>
                </mxCell>
                <mxCell id="ZFfleTE0ektDz7jlJYvN-44" style="edgeStyle=none;shape=connector;rounded=1;html=1;exitX=1;exitY=0.75;exitDx=0;exitDy=0;strokeColor=default;align=center;verticalAlign=middle;fontFamily=Helvetica;fontSize=11;fontColor=default;labelBackgroundColor=default;endArrow=none;endFill=0;" parent="1" source="ZFfleTE0ektDz7jlJYvN-4" target="ZFfleTE0ektDz7jlJYvN-45" edge="1">
                    <mxGeometry relative="1" as="geometry">
                        <mxPoint x="620.0000000000002" y="570" as="targetPoint"/>
                    </mxGeometry>
                </mxCell>
                <mxCell id="ZFfleTE0ektDz7jlJYvN-4" value="Rota" style="rounded=0;whiteSpace=wrap;html=1;" parent="1" vertex="1">
                    <mxGeometry x="390" y="400" width="120" height="60" as="geometry"/>
                </mxCell>
                <mxCell id="ZFfleTE0ektDz7jlJYvN-46" style="edgeStyle=none;shape=connector;rounded=1;html=1;exitX=0.25;exitY=0;exitDx=0;exitDy=0;strokeColor=default;align=center;verticalAlign=middle;fontFamily=Helvetica;fontSize=11;fontColor=default;labelBackgroundColor=default;endArrow=none;endFill=0;" parent="1" source="ZFfleTE0ektDz7jlJYvN-5" target="ZFfleTE0ektDz7jlJYvN-47" edge="1">
                    <mxGeometry relative="1" as="geometry">
                        <mxPoint x="200" y="90" as="targetPoint"/>
                    </mxGeometry>
                </mxCell>
                <mxCell id="ZFfleTE0ektDz7jlJYvN-48" style="edgeStyle=none;shape=connector;rounded=1;html=1;exitX=0.5;exitY=0;exitDx=0;exitDy=0;strokeColor=default;align=center;verticalAlign=middle;fontFamily=Helvetica;fontSize=11;fontColor=default;labelBackgroundColor=default;endArrow=none;endFill=0;" parent="1" source="ZFfleTE0ektDz7jlJYvN-5" target="ZFfleTE0ektDz7jlJYvN-49" edge="1">
                    <mxGeometry relative="1" as="geometry">
                        <mxPoint x="300" y="50" as="targetPoint"/>
                    </mxGeometry>
                </mxCell>
                <mxCell id="ZFfleTE0ektDz7jlJYvN-50" style="edgeStyle=none;shape=connector;rounded=1;html=1;exitX=0.75;exitY=0;exitDx=0;exitDy=0;strokeColor=default;align=center;verticalAlign=middle;fontFamily=Helvetica;fontSize=11;fontColor=default;labelBackgroundColor=default;endArrow=none;endFill=0;" parent="1" source="ZFfleTE0ektDz7jlJYvN-5" target="ZFfleTE0ektDz7jlJYvN-51" edge="1">
                    <mxGeometry relative="1" as="geometry">
                        <mxPoint x="380" y="90" as="targetPoint"/>
                    </mxGeometry>
                </mxCell>
                <mxCell id="ZFfleTE0ektDz7jlJYvN-52" style="edgeStyle=none;shape=connector;rounded=1;html=1;exitX=1;exitY=0;exitDx=0;exitDy=0;strokeColor=default;align=center;verticalAlign=middle;fontFamily=Helvetica;fontSize=11;fontColor=default;labelBackgroundColor=default;endArrow=none;endFill=0;" parent="1" source="ZFfleTE0ektDz7jlJYvN-5" target="ZFfleTE0ektDz7jlJYvN-53" edge="1">
                    <mxGeometry relative="1" as="geometry">
                        <mxPoint x="460" y="180" as="targetPoint"/>
                    </mxGeometry>
                </mxCell>
                <mxCell id="ZFfleTE0ektDz7jlJYvN-54" style="edgeStyle=none;shape=connector;rounded=1;html=1;exitX=1;exitY=0.25;exitDx=0;exitDy=0;strokeColor=default;align=center;verticalAlign=middle;fontFamily=Helvetica;fontSize=11;fontColor=default;labelBackgroundColor=default;endArrow=none;endFill=0;" parent="1" source="ZFfleTE0ektDz7jlJYvN-5" target="ZFfleTE0ektDz7jlJYvN-55" edge="1">
                    <mxGeometry relative="1" as="geometry">
                        <mxPoint x="470" y="280" as="targetPoint"/>
                    </mxGeometry>
                </mxCell>
                <mxCell id="ZFfleTE0ektDz7jlJYvN-5" value="Ônibus_Rota" style="rounded=0;whiteSpace=wrap;html=1;" parent="1" vertex="1">
                    <mxGeometry x="230" y="240" width="120" height="60" as="geometry"/>
                </mxCell>
                <mxCell id="ZFfleTE0ektDz7jlJYvN-32" style="edgeStyle=none;shape=connector;rounded=1;html=1;exitX=0;exitY=0.5;exitDx=0;exitDy=0;strokeColor=default;align=center;verticalAlign=middle;fontFamily=Helvetica;fontSize=11;fontColor=default;labelBackgroundColor=default;endArrow=none;endFill=0;" parent="1" source="ZFfleTE0ektDz7jlJYvN-6" target="ZFfleTE0ektDz7jlJYvN-35" edge="1">
                    <mxGeometry relative="1" as="geometry">
                        <mxPoint y="430.3809523809523" as="targetPoint"/>
                    </mxGeometry>
                </mxCell>
                <mxCell id="ZFfleTE0ektDz7jlJYvN-36" style="edgeStyle=none;shape=connector;rounded=1;html=1;exitX=0;exitY=0.25;exitDx=0;exitDy=0;strokeColor=default;align=center;verticalAlign=middle;fontFamily=Helvetica;fontSize=11;fontColor=default;labelBackgroundColor=default;endArrow=none;endFill=0;" parent="1" source="ZFfleTE0ektDz7jlJYvN-6" target="ZFfleTE0ektDz7jlJYvN-37" edge="1">
                    <mxGeometry relative="1" as="geometry">
                        <mxPoint x="20" y="350" as="targetPoint"/>
                    </mxGeometry>
                </mxCell>
                <mxCell id="ZFfleTE0ektDz7jlJYvN-38" style="edgeStyle=none;shape=connector;rounded=1;html=1;exitX=0;exitY=0.75;exitDx=0;exitDy=0;strokeColor=default;align=center;verticalAlign=middle;fontFamily=Helvetica;fontSize=11;fontColor=default;labelBackgroundColor=default;endArrow=none;endFill=0;" parent="1" source="ZFfleTE0ektDz7jlJYvN-6" target="ZFfleTE0ektDz7jlJYvN-39" edge="1">
                    <mxGeometry relative="1" as="geometry">
                        <mxPoint x="10" y="480" as="targetPoint"/>
                    </mxGeometry>
                </mxCell>
                <mxCell id="ZFfleTE0ektDz7jlJYvN-6" value="Parada" style="rounded=0;whiteSpace=wrap;html=1;" parent="1" vertex="1">
                    <mxGeometry x="80" y="400" width="120" height="60" as="geometry"/>
                </mxCell>
                <mxCell id="ZFfleTE0ektDz7jlJYvN-13" value="" style="edgeStyle=none;shape=connector;rounded=1;html=1;exitX=0;exitY=0.5;exitDx=0;exitDy=0;entryX=1;entryY=0.5;entryDx=0;entryDy=0;strokeColor=default;align=center;verticalAlign=middle;fontFamily=Helvetica;fontSize=11;fontColor=default;labelBackgroundColor=default;endArrow=none;endFill=0;" parent="1" source="ZFfleTE0ektDz7jlJYvN-1" target="ZFfleTE0ektDz7jlJYvN-12" edge="1">
                    <mxGeometry relative="1" as="geometry">
                        <mxPoint x="230" y="540" as="sourcePoint"/>
                        <mxPoint x="100" y="660" as="targetPoint"/>
                    </mxGeometry>
                </mxCell>
                <mxCell id="ZFfleTE0ektDz7jlJYvN-12" value="(N:N)" style="text;html=1;align=center;verticalAlign=middle;whiteSpace=wrap;rounded=0;fontFamily=Helvetica;fontSize=11;fontColor=default;labelBackgroundColor=default;" parent="1" vertex="1">
                    <mxGeometry x="200" y="525" width="30" height="30" as="geometry"/>
                </mxCell>
                <mxCell id="ZFfleTE0ektDz7jlJYvN-15" value="" style="edgeStyle=none;shape=connector;rounded=1;html=1;exitX=0;exitY=0.5;exitDx=0;exitDy=0;entryX=0.5;entryY=0;entryDx=0;entryDy=0;strokeColor=default;align=center;verticalAlign=middle;fontFamily=Helvetica;fontSize=11;fontColor=default;labelBackgroundColor=default;endArrow=none;endFill=0;" parent="1" source="ZFfleTE0ektDz7jlJYvN-12" target="ZFfleTE0ektDz7jlJYvN-14" edge="1">
                    <mxGeometry relative="1" as="geometry">
                        <mxPoint x="170" y="540" as="sourcePoint"/>
                        <mxPoint x="100" y="660" as="targetPoint"/>
                        <Array as="points">
                            <mxPoint x="100" y="540"/>
                        </Array>
                    </mxGeometry>
                </mxCell>
                <mxCell id="ZFfleTE0ektDz7jlJYvN-14" value="(N:N)" style="text;html=1;align=center;verticalAlign=middle;whiteSpace=wrap;rounded=0;fontFamily=Helvetica;fontSize=11;fontColor=default;labelBackgroundColor=default;" parent="1" vertex="1">
                    <mxGeometry x="70" y="960" width="60" height="20" as="geometry"/>
                </mxCell>
                <mxCell id="ZFfleTE0ektDz7jlJYvN-17" value="" style="edgeStyle=none;shape=connector;rounded=1;html=1;exitX=1;exitY=0.5;exitDx=0;exitDy=0;entryX=0;entryY=0.5;entryDx=0;entryDy=0;strokeColor=default;align=center;verticalAlign=middle;fontFamily=Helvetica;fontSize=11;fontColor=default;labelBackgroundColor=default;endArrow=none;endFill=0;" parent="1" source="ZFfleTE0ektDz7jlJYvN-1" target="ZFfleTE0ektDz7jlJYvN-16" edge="1">
                    <mxGeometry relative="1" as="geometry">
                        <mxPoint x="350" y="540" as="sourcePoint"/>
                        <mxPoint x="500" y="660" as="targetPoint"/>
                    </mxGeometry>
                </mxCell>
                <mxCell id="ZFfleTE0ektDz7jlJYvN-16" value="(1:1)" style="text;html=1;align=center;verticalAlign=middle;whiteSpace=wrap;rounded=0;fontFamily=Helvetica;fontSize=11;fontColor=default;labelBackgroundColor=default;" parent="1" vertex="1">
                    <mxGeometry x="350" y="525" width="30" height="30" as="geometry"/>
                </mxCell>
                <mxCell id="ZFfleTE0ektDz7jlJYvN-19" value="" style="edgeStyle=none;shape=connector;rounded=1;html=1;exitX=1;exitY=0.5;exitDx=0;exitDy=0;entryX=0.5;entryY=0;entryDx=0;entryDy=0;strokeColor=default;align=center;verticalAlign=middle;fontFamily=Helvetica;fontSize=11;fontColor=default;labelBackgroundColor=default;endArrow=none;endFill=0;" parent="1" source="ZFfleTE0ektDz7jlJYvN-16" target="ZFfleTE0ektDz7jlJYvN-18" edge="1">
                    <mxGeometry relative="1" as="geometry">
                        <mxPoint x="380" y="540" as="sourcePoint"/>
                        <mxPoint x="500" y="660" as="targetPoint"/>
                        <Array as="points">
                            <mxPoint x="500" y="540"/>
                        </Array>
                    </mxGeometry>
                </mxCell>
                <mxCell id="ZFfleTE0ektDz7jlJYvN-18" value="(1:1)" style="text;html=1;align=center;verticalAlign=middle;whiteSpace=wrap;rounded=0;fontFamily=Helvetica;fontSize=11;fontColor=default;labelBackgroundColor=default;" parent="1" vertex="1">
                    <mxGeometry x="470" y="960" width="60" height="20" as="geometry"/>
                </mxCell>
                <mxCell id="ZFfleTE0ektDz7jlJYvN-21" value="" style="edgeStyle=none;html=1;exitX=1;exitY=0.5;exitDx=0;exitDy=0;endArrow=none;endFill=0;" parent="1" source="ZFfleTE0ektDz7jlJYvN-2" target="ZFfleTE0ektDz7jlJYvN-20" edge="1">
                    <mxGeometry relative="1" as="geometry">
                        <mxPoint x="160" y="1010" as="sourcePoint"/>
                        <mxPoint x="440" y="1010" as="targetPoint"/>
                    </mxGeometry>
                </mxCell>
                <mxCell id="ZFfleTE0ektDz7jlJYvN-20" value="(1:1)" style="text;html=1;align=center;verticalAlign=middle;whiteSpace=wrap;rounded=0;fontFamily=Helvetica;fontSize=11;fontColor=default;labelBackgroundColor=default;" parent="1" vertex="1">
                    <mxGeometry x="160" y="995" width="30" height="30" as="geometry"/>
                </mxCell>
                <mxCell id="ZFfleTE0ektDz7jlJYvN-23" value="" style="edgeStyle=none;html=1;exitX=1;exitY=0.5;exitDx=0;exitDy=0;endArrow=none;endFill=0;" parent="1" source="ZFfleTE0ektDz7jlJYvN-20" target="ZFfleTE0ektDz7jlJYvN-22" edge="1">
                    <mxGeometry relative="1" as="geometry">
                        <mxPoint x="190" y="1010" as="sourcePoint"/>
                        <mxPoint x="440" y="1010" as="targetPoint"/>
                    </mxGeometry>
                </mxCell>
                <mxCell id="ZFfleTE0ektDz7jlJYvN-22" value="(1:1)" style="text;html=1;align=center;verticalAlign=middle;whiteSpace=wrap;rounded=0;fontFamily=Helvetica;fontSize=11;fontColor=default;labelBackgroundColor=default;" parent="1" vertex="1">
                    <mxGeometry x="410" y="995" width="30" height="30" as="geometry"/>
                </mxCell>
                <mxCell id="ZFfleTE0ektDz7jlJYvN-29" value="" style="edgeStyle=none;shape=connector;rounded=1;html=1;exitX=0.5;exitY=0;exitDx=0;exitDy=0;strokeColor=default;align=center;verticalAlign=middle;fontFamily=Helvetica;fontSize=11;fontColor=default;labelBackgroundColor=default;endArrow=none;endFill=0;" parent="1" source="ZFfleTE0ektDz7jlJYvN-30" target="ZFfleTE0ektDz7jlJYvN-28" edge="1">
                    <mxGeometry relative="1" as="geometry">
                        <mxPoint x="290" y="510" as="sourcePoint"/>
                        <mxPoint x="290" y="300" as="targetPoint"/>
                    </mxGeometry>
                </mxCell>
                <mxCell id="ZFfleTE0ektDz7jlJYvN-28" value="(N:N)" style="text;html=1;align=center;verticalAlign=middle;whiteSpace=wrap;rounded=0;fontFamily=Helvetica;fontSize=11;fontColor=default;labelBackgroundColor=default;" parent="1" vertex="1">
                    <mxGeometry x="260" y="300" width="60" height="20" as="geometry"/>
                </mxCell>
                <mxCell id="ZFfleTE0ektDz7jlJYvN-31" value="" style="edgeStyle=none;shape=connector;rounded=1;html=1;exitX=0.5;exitY=0;exitDx=0;exitDy=0;strokeColor=default;align=center;verticalAlign=middle;fontFamily=Helvetica;fontSize=11;fontColor=default;labelBackgroundColor=default;endArrow=none;endFill=0;" parent="1" source="ZFfleTE0ektDz7jlJYvN-1" target="ZFfleTE0ektDz7jlJYvN-30" edge="1">
                    <mxGeometry relative="1" as="geometry">
                        <mxPoint x="290" y="510" as="sourcePoint"/>
                        <mxPoint x="290" y="320" as="targetPoint"/>
                    </mxGeometry>
                </mxCell>
                <mxCell id="ZFfleTE0ektDz7jlJYvN-30" value="(N:N)" style="text;html=1;align=center;verticalAlign=middle;whiteSpace=wrap;rounded=0;fontFamily=Helvetica;fontSize=11;fontColor=default;labelBackgroundColor=default;" parent="1" vertex="1">
                    <mxGeometry x="260" y="480" width="60" height="30" as="geometry"/>
                </mxCell>
                <mxCell id="ZFfleTE0ektDz7jlJYvN-35" value="ID" style="ellipse;whiteSpace=wrap;html=1;aspect=fixed;fontFamily=Helvetica;fontSize=11;fontColor=default;labelBackgroundColor=default;" parent="1" vertex="1">
                    <mxGeometry x="-50" y="390.38" width="40" height="40" as="geometry"/>
                </mxCell>
                <mxCell id="ZFfleTE0ektDz7jlJYvN-37" value="Endereço" style="ellipse;whiteSpace=wrap;html=1;aspect=fixed;fontFamily=Helvetica;fontSize=11;fontColor=default;labelBackgroundColor=default;" parent="1" vertex="1">
                    <mxGeometry y="330" width="60" height="60" as="geometry"/>
                </mxCell>
                <mxCell id="ZFfleTE0ektDz7jlJYvN-39" value="Número" style="ellipse;whiteSpace=wrap;html=1;aspect=fixed;fontFamily=Helvetica;fontSize=11;fontColor=default;labelBackgroundColor=default;" parent="1" vertex="1">
                    <mxGeometry x="-10" y="460" width="50" height="50" as="geometry"/>
                </mxCell>
                <mxCell id="ZFfleTE0ektDz7jlJYvN-41" value="ID" style="ellipse;whiteSpace=wrap;html=1;aspect=fixed;fontFamily=Helvetica;fontSize=11;fontColor=default;labelBackgroundColor=default;" parent="1" vertex="1">
                    <mxGeometry x="570" y="350" width="50" height="50" as="geometry"/>
                </mxCell>
                <mxCell id="ZFfleTE0ektDz7jlJYvN-43" value="Endereço" style="ellipse;whiteSpace=wrap;html=1;aspect=fixed;fontFamily=Helvetica;fontSize=11;fontColor=default;labelBackgroundColor=default;" parent="1" vertex="1">
                    <mxGeometry x="620" y="440" width="50" height="50" as="geometry"/>
                </mxCell>
                <mxCell id="ZFfleTE0ektDz7jlJYvN-45" value="Número" style="ellipse;whiteSpace=wrap;html=1;aspect=fixed;fontFamily=Helvetica;fontSize=11;fontColor=default;labelBackgroundColor=default;" parent="1" vertex="1">
                    <mxGeometry x="580" y="530" width="50" height="50" as="geometry"/>
                </mxCell>
                <mxCell id="ZFfleTE0ektDz7jlJYvN-47" value="ID" style="ellipse;whiteSpace=wrap;html=1;aspect=fixed;fontFamily=Helvetica;fontSize=11;fontColor=default;labelBackgroundColor=default;" parent="1" vertex="1">
                    <mxGeometry x="160" y="90" width="40" height="40" as="geometry"/>
                </mxCell>
                <mxCell id="ZFfleTE0ektDz7jlJYvN-49" value="Placa" style="ellipse;whiteSpace=wrap;html=1;aspect=fixed;fontFamily=Helvetica;fontSize=11;fontColor=default;labelBackgroundColor=default;" parent="1" vertex="1">
                    <mxGeometry x="260" y="50" width="40" height="40" as="geometry"/>
                </mxCell>
                <mxCell id="ZFfleTE0ektDz7jlJYvN-51" value="Modelo" style="ellipse;whiteSpace=wrap;html=1;aspect=fixed;fontFamily=Helvetica;fontSize=11;fontColor=default;labelBackgroundColor=default;" parent="1" vertex="1">
                    <mxGeometry x="340" y="80" width="50" height="50" as="geometry"/>
                </mxCell>
                <mxCell id="ZFfleTE0ektDz7jlJYvN-53" value="Marca" style="ellipse;whiteSpace=wrap;html=1;aspect=fixed;fontFamily=Helvetica;fontSize=11;fontColor=default;labelBackgroundColor=default;" parent="1" vertex="1">
                    <mxGeometry x="420" y="180" width="40" height="40" as="geometry"/>
                </mxCell>
                <mxCell id="ZFfleTE0ektDz7jlJYvN-55" value="" style="ellipse;whiteSpace=wrap;html=1;aspect=fixed;fontFamily=Helvetica;fontSize=11;fontColor=default;labelBackgroundColor=default;" parent="1" vertex="1">
                    <mxGeometry x="430" y="240" width="80" height="80" as="geometry"/>
                </mxCell>
            </root>
        </mxGraphModel>
    </diagram>
</mxfile>